<?xml version="1.0" encoding="utf-8"?>
<!-- Generator: Adobe Illustrator 22.0.1, SVG Export Plug-In . SVG Version: 6.00 Build 0)  -->
<svg version="1.1" id="Layer_1" xmlns="http://www.w3.org/2000/svg" xmlns:xlink="http://www.w3.org/1999/xlink" x="0px" y="0px"
	 viewBox="0 0 382 437.5" style="enable-background:new 0 0 382 437.5;" xml:space="preserve">
<g>
	<path d="M202.9,332.8c4,6,7,14,7,22c0,21-18,39-39,39s-39-18-39-39c0-8,3-16,7-22h-12c-4,0-8-3-9-7l-51-249l-60-13c-12-3-7-22,4-20
		l67,15c4,1,6,3,7,7l16,76h273c5,0,9,5,8,11l-37,132c-1,4-4,6-8,6h-205l4,22h198c11,0,11,20,0,20h-10c4,6,7,14,7,22
		c0,21-18,39-39,39s-39-18-39-39c0-8,3-16,7-22H202.9z M104.9,161.8l22,109h202l30-109H104.9z M291.9,335.8c-10,0-19,8-19,19
		c0,10,9,19,19,19s19-9,19-19C310.9,343.8,301.9,335.8,291.9,335.8z M170.9,335.8c-11,0-19,8-19,19c0,10,8,19,19,19c10,0,19-9,19-19
		C189.9,343.8,180.9,335.8,170.9,335.8z"/>
</g>
</svg>
